<svg width="160" height="40" viewBox="0 0 160 40" fill="none" xmlns="http://www.w3.org/2000/svg">
<path d="M18.6157 36.104C16.1909 33.7021 14.7017 30.3924 14.7017 26.7423V0H0V26.7423C0 33.3428 4.88783 38.8085 11.2649 39.8109C14.1098 39.3759 16.6492 38.0331 18.6157 36.104Z" fill="#700813"/>
<path d="M22.5872 0V26.7423C22.5872 30.3924 21.0979 33.7021 18.6731 36.104C16.7256 38.0331 14.1862 39.3759 11.3223 39.8298C12.0096 39.9433 12.7161 39.9811 13.4225 39.9811H23.9046C24.6301 39.9811 25.3175 39.9244 26.0048 39.8298C32.3819 38.8274 37.2698 33.3617 37.2698 26.7612V0H22.5872Z" fill="#E31C24"/>
<path d="M45.1937 26.6856V26.7423C45.1937 32.6241 41.3178 37.5981 35.9717 39.3381C35.8381 39.3948 35.7617 39.5083 35.7617 39.6596C35.7617 39.8487 35.9145 39.9811 36.0863 40H46.5493C53.9192 40 59.9144 34.0804 59.9144 26.7612V0H45.2128V26.6856H45.1937Z" fill="#014C84"/>
<path fill-rule="evenodd" clip-rule="evenodd" d="M79.8857 15.4893H79.122C78.9883 15.4893 78.8737 15.5082 78.7783 15.5272C78.6637 15.5461 78.5683 15.6028 78.4728 15.6785C78.3964 15.7541 78.32 15.8676 78.2819 16.0189C78.2437 16.1702 78.2055 16.3782 78.2055 16.6241V23.5461C78.2055 24.1513 78.1291 24.6808 77.9382 25.1536C77.7663 25.6265 77.499 26.0425 77.1363 26.364C76.7735 26.6856 76.2962 26.9503 75.7425 27.1205C75.1697 27.3097 74.5014 27.3853 73.7186 27.3853C72.9358 27.3853 72.2294 27.3097 71.6184 27.1584C71.0074 27.0071 70.4919 26.7801 70.0527 26.4586C69.6327 26.1371 69.3081 25.721 69.079 25.2104C68.869 24.6997 68.7544 24.0756 68.7544 23.338V16.5484C68.7544 16.3215 68.7353 16.1324 68.678 15.9811C68.6208 15.8487 68.5635 15.7352 68.468 15.6595C68.3916 15.5839 68.2962 15.5272 68.1816 15.5082C68.0671 15.4893 67.9525 15.4704 67.8379 15.4704H67.0742V14.5626H73.2604V15.4893H72.5157C72.3821 15.4893 72.2675 15.5082 72.153 15.5272C72.0384 15.5461 71.943 15.6028 71.8666 15.6785C71.7902 15.7541 71.7138 15.8676 71.6757 16.0189C71.6375 16.1702 71.5993 16.3782 71.5993 16.6241V23.4893C71.5993 23.9811 71.6566 24.3971 71.7902 24.7376C71.9048 25.078 72.0957 25.3428 72.3248 25.5508C72.5539 25.7588 72.8403 25.9101 73.1649 25.9858C73.4895 26.0804 73.8523 26.1182 74.2723 26.1182C74.6733 26.1182 75.036 26.0614 75.3606 25.9669C75.6852 25.8723 75.9525 25.7021 76.1816 25.4941C76.4107 25.2671 76.5826 25.0023 76.6971 24.6808C76.8117 24.3593 76.869 23.9621 76.869 23.5082V16.5863C76.869 16.3593 76.8499 16.1702 76.8117 16.0189C76.7735 15.8865 76.6971 15.773 76.6208 15.6974C76.5444 15.6217 76.4489 15.565 76.3344 15.5461C76.2198 15.5272 76.1052 15.5082 75.9716 15.5082H75.227V14.5626H79.9239V15.4893H79.8857Z" fill="#E31C24"/>
<path fill-rule="evenodd" clip-rule="evenodd" d="M91.3031 27.2529L84.296 17.4562V25.1536C84.296 25.3995 84.3151 25.6075 84.3724 25.7588C84.4296 25.9101 84.4869 26.0236 84.5633 26.0993C84.6397 26.1749 84.7351 26.2317 84.8497 26.2506C84.9643 26.2695 85.0788 26.2884 85.2125 26.2884H85.9762V27.234H81.2793V26.2884H82.0239C82.1576 26.2884 82.2721 26.2695 82.3867 26.2506C82.5012 26.2317 82.5967 26.1749 82.6731 26.0993C82.7495 26.0236 82.8258 25.9101 82.864 25.7588C82.9022 25.6075 82.9404 25.3995 82.9404 25.1536V16.5863C82.9404 16.3593 82.9213 16.1702 82.864 16.0189C82.8067 15.8865 82.7495 15.773 82.654 15.6974C82.5585 15.6217 82.4631 15.565 82.3676 15.5461C82.253 15.5272 82.1385 15.5082 82.0239 15.5082H81.2793V14.5626H85.2697L91.6086 23.4326V16.5863C91.6086 16.3593 91.5895 16.1702 91.5323 16.0189C91.475 15.8865 91.4177 15.773 91.3222 15.6974C91.2459 15.6217 91.1313 15.565 91.0358 15.5461C90.9213 15.5272 90.8067 15.5082 90.6922 15.5082H89.9284V14.5626H94.6062V15.4893H93.8425C93.728 15.4893 93.6134 15.5082 93.4988 15.5272C93.3843 15.5461 93.2888 15.6028 93.1934 15.6785C93.117 15.7541 93.0406 15.8676 93.0024 16.0189C92.9451 16.1702 92.9261 16.3782 92.9261 16.6241V27.2151H91.3031V27.2529Z" fill="#E31C24"/>
<path fill-rule="evenodd" clip-rule="evenodd" d="M96.1533 27.2529V26.3073H96.898C97.0316 26.3073 97.1653 26.2884 97.2607 26.2695C97.3753 26.2506 97.4707 26.1938 97.5471 26.1182C97.6235 26.0425 97.6999 25.9291 97.738 25.7778C97.7762 25.6265 97.8144 25.4184 97.8144 25.1726V16.6619C97.8144 16.4161 97.7953 16.208 97.738 16.0567C97.6999 15.9054 97.6235 15.7919 97.5471 15.7163C97.4707 15.6406 97.3562 15.5839 97.2607 15.565C97.1462 15.5461 97.0316 15.5272 96.898 15.5272H96.1533V14.5815H102.34V15.5272H101.576C101.442 15.5272 101.328 15.5461 101.213 15.565C101.098 15.5839 101.003 15.6406 100.927 15.7163C100.85 15.7919 100.774 15.9054 100.736 16.0567C100.678 16.208 100.659 16.4161 100.659 16.6619V25.1536C100.659 25.3995 100.678 25.6075 100.736 25.7588C100.793 25.9101 100.85 26.0236 100.927 26.0993C101.003 26.1749 101.098 26.2317 101.213 26.2506C101.328 26.2695 101.442 26.2884 101.576 26.2884H102.34V27.234H96.1533V27.2529Z" fill="#E31C24"/>
<path fill-rule="evenodd" clip-rule="evenodd" d="M109.919 15.4893H109.155C109.022 15.4893 108.907 15.5082 108.793 15.5272C108.678 15.5461 108.583 15.6028 108.506 15.6785C108.43 15.7541 108.353 15.8676 108.315 16.0189C108.258 16.1702 108.239 16.3782 108.239 16.6241V27.2529C108.239 27.7825 108.182 28.2742 108.067 28.6903C107.933 29.1064 107.781 29.4846 107.551 29.7872C107.341 30.1087 107.074 30.3735 106.769 30.5815C106.463 30.8085 106.139 30.9787 105.795 31.1111C105.432 31.2435 105.069 31.338 104.668 31.4137C104.267 31.4704 103.867 31.5082 103.466 31.5082H102.816V30.487H103.141C103.427 30.487 103.714 30.4302 103.981 30.3168C104.248 30.2033 104.497 30.0331 104.707 29.7872C104.917 29.5413 105.088 29.2198 105.222 28.8038C105.356 28.4066 105.413 27.896 105.413 27.3097V16.5863C105.413 16.3593 105.394 16.1702 105.337 16.0189C105.279 15.8865 105.222 15.773 105.146 15.6974C105.069 15.6217 104.955 15.565 104.859 15.5461C104.745 15.5272 104.63 15.5082 104.516 15.5082H103.771V14.5626H109.957V15.4893H109.919Z" fill="#014C84"/>
<path fill-rule="evenodd" clip-rule="evenodd" d="M122.96 20.8794C122.96 21.8629 122.826 22.7518 122.559 23.5461C122.291 24.3404 121.909 25.0402 121.375 25.6076C120.859 26.1749 120.229 26.6099 119.466 26.9314C118.721 27.2529 117.862 27.4042 116.888 27.4042C115.857 27.4042 114.979 27.2529 114.215 26.9314C113.451 26.6099 112.821 26.1749 112.325 25.6076C111.828 25.0402 111.446 24.3404 111.198 23.5272C110.95 22.7139 110.816 21.825 110.816 20.8416C110.816 19.8581 110.95 18.9693 111.198 18.1749C111.446 17.3617 111.828 16.6808 112.325 16.1135C112.821 15.5461 113.451 15.1111 114.234 14.7896C114.998 14.487 115.895 14.3168 116.926 14.3168C117.9 14.3168 118.759 14.4681 119.504 14.7896C120.248 15.0922 120.898 15.5461 121.394 16.1135C121.909 16.6808 122.291 17.3617 122.559 18.1749C122.807 19.0071 122.96 19.896 122.96 20.8794ZM113.814 20.8794C113.814 21.7305 113.871 22.487 113.986 23.1489C114.1 23.8109 114.272 24.3782 114.52 24.8321C114.769 25.286 115.074 25.6454 115.475 25.8912C115.857 26.1371 116.334 26.2506 116.888 26.2506C117.442 26.2506 117.919 26.1371 118.32 25.8912C118.702 25.6454 119.026 25.305 119.256 24.8321C119.504 24.3593 119.676 23.8109 119.771 23.1489C119.886 22.487 119.943 21.7305 119.943 20.8794C119.943 20.0284 119.886 19.2719 119.771 18.6099C119.676 17.948 119.504 17.3806 119.256 16.9267C119.007 16.4728 118.702 16.1135 118.32 15.8676C117.938 15.6217 117.461 15.5083 116.907 15.5083C116.353 15.5083 115.876 15.6217 115.475 15.8676C115.093 16.1135 114.769 16.4539 114.52 16.9267C114.272 17.3806 114.1 17.948 113.986 18.6099C113.871 19.2719 113.814 20.0284 113.814 20.8794Z" fill="#014C84"/>
<path fill-rule="evenodd" clip-rule="evenodd" d="M124.048 26.3073H124.793C124.927 26.3073 125.041 26.2884 125.137 26.2695C125.251 26.2506 125.347 26.1938 125.423 26.1371C125.519 26.0614 125.576 25.948 125.633 25.8156C125.671 25.6832 125.709 25.4941 125.709 25.2482V16.5863C125.709 16.3593 125.69 16.1702 125.633 16.0189C125.576 15.8865 125.519 15.773 125.423 15.6974C125.347 15.6217 125.251 15.565 125.137 15.5461C125.022 15.5272 124.908 15.5082 124.793 15.5082H124.048V14.5626H129.834C131.533 14.5626 132.774 14.8463 133.557 15.4137C134.359 15.9811 134.741 16.7943 134.741 17.8534C134.741 18.3262 134.683 18.7423 134.53 19.1016C134.397 19.461 134.206 19.7825 133.977 20.0473C133.748 20.312 133.48 20.5579 133.194 20.747C132.908 20.9361 132.602 21.0874 132.297 21.2198L134.435 24.87C134.588 25.1347 134.741 25.3428 134.874 25.5319C135.027 25.721 135.161 25.8723 135.313 25.9858C135.447 26.1182 135.6 26.1938 135.752 26.2506C135.905 26.3073 136.058 26.3262 136.23 26.3262H136.306V27.2718H135.714C135.18 27.2718 134.702 27.2529 134.301 27.2151C133.9 27.1773 133.557 27.1016 133.251 26.9692C132.946 26.8558 132.698 26.6856 132.468 26.4775C132.258 26.2695 132.048 26.0047 131.857 25.6643L129.738 21.7494H128.535V25.2482C128.535 25.4752 128.573 25.6643 128.612 25.8156C128.65 25.948 128.726 26.0614 128.822 26.1371C128.898 26.2127 129.013 26.2506 129.108 26.2695C129.223 26.2884 129.337 26.3073 129.452 26.3073H130.215V27.2529H124.029V26.3073H124.048ZM128.535 20.7092H129.547C129.967 20.7092 130.311 20.6525 130.578 20.539C130.846 20.4255 131.075 20.2742 131.246 20.0473C131.418 19.8392 131.533 19.5555 131.609 19.234C131.686 18.9125 131.724 18.5343 131.724 18.0993C131.724 17.6454 131.686 17.2671 131.59 16.9456C131.514 16.6241 131.38 16.3782 131.208 16.1702C131.036 15.9811 130.807 15.8298 130.521 15.7352C130.235 15.6406 129.91 15.6028 129.509 15.6028H128.535V20.7092Z" fill="#014C84"/>
<path fill-rule="evenodd" clip-rule="evenodd" d="M143.065 27.4232C141.957 27.4232 140.984 27.2719 140.163 26.9504C139.341 26.6289 138.654 26.1939 138.1 25.6265C137.547 25.0591 137.146 24.3594 136.879 23.565C136.611 22.7707 136.478 21.8818 136.478 20.8984C136.478 19.9338 136.611 19.0638 136.898 18.2506C137.184 17.4563 137.604 16.7754 138.177 16.1891C138.75 15.6218 139.437 15.1679 140.277 14.8463C141.117 14.5248 142.072 14.3735 143.179 14.3735C143.924 14.3735 144.573 14.4303 145.127 14.5437C145.68 14.6572 146.158 14.7896 146.54 14.9787C146.921 15.1679 147.189 15.3759 147.38 15.6407C147.571 15.8865 147.666 16.1513 147.666 16.4539C147.666 16.662 147.609 16.8511 147.513 17.0402C147.418 17.2293 147.265 17.3806 147.074 17.513C146.883 17.6454 146.635 17.7589 146.349 17.8345C146.062 17.9102 145.738 17.948 145.356 17.948C145.356 17.5887 145.318 17.2672 145.222 16.9646C145.127 16.662 144.993 16.3972 144.821 16.1891C144.63 15.9811 144.401 15.8109 144.134 15.6974C143.847 15.5839 143.523 15.5272 143.141 15.5272C142.492 15.5272 141.938 15.6407 141.48 15.8865C141.022 16.1135 140.64 16.4728 140.353 16.9267C140.067 17.3806 139.857 17.948 139.723 18.6099C139.59 19.2719 139.532 20.0284 139.532 20.8984C139.532 21.7494 139.609 22.5059 139.742 23.1868C139.876 23.8487 140.105 24.3972 140.411 24.8511C140.716 25.305 141.117 25.6454 141.594 25.8724C142.072 26.0993 142.683 26.2317 143.389 26.2317C143.618 26.2317 143.828 26.2317 144.057 26.2128C144.287 26.1939 144.497 26.156 144.707 26.1182V23.5083C144.707 23.0355 144.592 22.714 144.382 22.5059C144.172 22.3168 143.847 22.2222 143.427 22.2222H143.198V21.2955H148.85V22.2222H148.621C148.449 22.2222 148.277 22.2411 148.143 22.279C148.01 22.3168 147.895 22.3924 147.819 22.5059C147.723 22.6194 147.666 22.7518 147.628 22.922C147.59 23.0922 147.571 23.3003 147.571 23.565V26.4776C146.864 26.7991 146.158 27.0449 145.451 27.1962C144.63 27.3475 143.867 27.4232 143.065 27.4232Z" fill="#014C84"/>
<path fill-rule="evenodd" clip-rule="evenodd" d="M153.872 26.156H157.461C157.633 26.156 157.805 26.1182 157.919 26.0614C158.053 25.9858 158.149 25.8912 158.263 25.7778C158.359 25.6643 158.435 25.513 158.492 25.3428C158.55 25.1726 158.588 25.0023 158.626 24.7943L158.76 23.9621H160.001L159.867 27.234H149.347V26.2884H150.091C150.225 26.2884 150.34 26.2884 150.454 26.2506C150.569 26.2317 150.664 26.1749 150.76 26.1182C150.836 26.0425 150.912 25.9291 150.95 25.7967C150.989 25.6643 151.027 25.4752 151.027 25.2293V16.6619C151.027 16.416 151.008 16.208 150.95 16.0567C150.912 15.9054 150.836 15.7919 150.76 15.7163C150.683 15.6406 150.588 15.5839 150.473 15.565C150.359 15.5461 150.244 15.5272 150.11 15.5272H149.366V14.5626H159.332L159.409 17.8345H158.149L158.072 16.9834C158.034 16.5484 157.919 16.208 157.748 15.9811C157.576 15.7541 157.289 15.6406 156.927 15.6406H153.91V20.0851H158.168V21.1442H153.91V26.156H153.872Z" fill="#014C84"/>
</svg>
